<svg width="2260" height="2265" xmlns="http://www.w3.org/2000/svg" xmlns:xlink="http://www.w3.org/1999/xlink" xml:space="preserve" overflow="hidden"><g transform="translate(-1040 -100)"><g><text fill="#FFFFFF" fill-opacity="1" font-family="Copperplate Gothic Bold,Copperplate Gothic Bold_MSFontService,sans-serif" font-style="normal" font-variant="normal" font-weight="700" font-stretch="normal" font-size="110" text-anchor="start" direction="ltr" writing-mode="lr-tb" unicode-bidi="normal" text-decoration="none" transform="matrix(1 0 0 1 2091.89 272)">12</text><text fill="#FFFFFF" fill-opacity="1" font-family="Copperplate Gothic Bold,Copperplate Gothic Bold_MSFontService,sans-serif" font-style="normal" font-variant="normal" font-weight="700" font-stretch="normal" font-size="110" text-anchor="start" direction="ltr" writing-mode="lr-tb" unicode-bidi="normal" text-decoration="none" transform="matrix(1 0 0 1 3129.6 1277)">3</text><text fill="#FFFFFF" fill-opacity="1" font-family="Copperplate Gothic Bold,Copperplate Gothic Bold_MSFontService,sans-serif" font-style="normal" font-variant="normal" font-weight="700" font-stretch="normal" font-size="110" text-anchor="start" direction="ltr" writing-mode="lr-tb" unicode-bidi="normal" text-decoration="none" transform="matrix(1 0 0 1 2131.14 2269)">6</text><text fill="#FFFFFF" fill-opacity="1" font-family="Copperplate Gothic Bold,Copperplate Gothic Bold_MSFontService,sans-serif" font-style="normal" font-variant="normal" font-weight="700" font-stretch="normal" font-size="110" text-anchor="start" direction="ltr" writing-mode="lr-tb" unicode-bidi="normal" text-decoration="none" transform="matrix(1 0 0 1 1132.68 1277)">9</text><path d="M2661 348.5C2661 337.73 2669.73 329 2680.5 329 2691.27 329 2700 337.73 2700 348.5 2700 359.27 2691.27 368 2680.5 368 2669.73 368 2661 359.27 2661 348.5Z" fill="#FFFFFF" fill-rule="evenodd" fill-opacity="1"/><path d="M3035 726.5C3035 715.731 3043.73 707 3054.5 707 3065.27 707 3074 715.731 3074 726.5 3074 737.27 3065.27 746 3054.5 746 3043.73 746 3035 737.27 3035 726.5Z" fill="#FFFFFF" fill-rule="evenodd" fill-opacity="1"/><path d="M3025 1745.5C3025 1734.73 3033.73 1726 3044.5 1726 3055.27 1726 3064 1734.73 3064 1745.5 3064 1756.27 3055.27 1765 3044.5 1765 3033.73 1765 3025 1756.27 3025 1745.5Z" fill="#FFFFFF" fill-rule="evenodd" fill-opacity="1"/><path d="M2656 2116.5C2656 2105.73 2664.73 2097 2675.5 2097 2686.27 2097 2695 2105.73 2695 2116.5 2695 2127.27 2686.27 2136 2675.5 2136 2664.73 2136 2656 2127.27 2656 2116.5Z" fill="#FFFFFF" fill-rule="evenodd" fill-opacity="1"/><path d="M1641 2119.5C1641 2108.73 1649.73 2100 1660.5 2100 1671.27 2100 1680 2108.73 1680 2119.5 1680 2130.27 1671.27 2139 1660.5 2139 1649.73 2139 1641 2130.27 1641 2119.5Z" fill="#FFFFFF" fill-rule="evenodd" fill-opacity="1"/><path d="M1269 1746.5C1269 1735.73 1277.73 1727 1288.5 1727 1299.27 1727 1308 1735.73 1308 1746.5 1308 1757.27 1299.27 1766 1288.5 1766 1277.73 1766 1269 1757.27 1269 1746.5Z" fill="#FFFFFF" fill-rule="evenodd" fill-opacity="1"/><path d="M1261 730.5C1261 719.73 1269.73 711 1280.5 711 1291.27 711 1300 719.73 1300 730.5 1300 741.27 1291.27 750 1280.5 750 1269.73 750 1261 741.27 1261 730.5Z" fill="#FFFFFF" fill-rule="evenodd" fill-opacity="1"/><path d="M1637 351.5C1637 340.73 1645.73 332 1656.5 332 1667.27 332 1676 340.73 1676 351.5 1676 362.269 1667.27 371 1656.5 371 1645.73 371 1637 362.269 1637 351.5Z" fill="#FFFFFF" fill-rule="evenodd" fill-opacity="1"/></g></g></svg>