<svg width="2434" height="2434" xmlns="http://www.w3.org/2000/svg" xmlns:xlink="http://www.w3.org/1999/xlink" xml:space="preserve" overflow="hidden"><g transform="translate(-953 -18)"><g><path d="M2163 104.5C2163 99.8056 2166.81 95.9999 2171.5 95.9999L2171.5 95.9999C2176.19 95.9999 2180 99.8056 2180 104.5L2180 360.5C2180 365.194 2176.19 369 2171.5 369L2171.5 369C2166.81 369 2163 365.194 2163 360.5Z" stroke="#F2F2F2" stroke-width="10.3125" stroke-linecap="butt" stroke-linejoin="miter" stroke-miterlimit="8" stroke-opacity="1" fill="#FFFFFF" fill-rule="evenodd" fill-opacity="1"/><path d="M2728.65 251.747C2730.93 247.801 2735.98 246.449 2739.92 248.727L2739.92 248.727C2743.87 251.005 2745.22 256.051 2742.94 259.997L2614.9 481.778C2612.62 485.724 2607.57 487.076 2603.63 484.798L2603.63 484.798C2599.68 482.519 2598.33 477.474 2600.61 473.528Z" fill="#FFFFFF" fill-rule="evenodd" fill-opacity="0.501961"/><path d="M1721.87 1993.22C1724.15 1989.28 1729.2 1987.92 1733.14 1990.2L1733.14 1990.2C1737.09 1992.48 1738.44 1997.53 1736.16 2001.47L1608.12 2223.25C1605.84 2227.2 1600.79 2228.55 1596.85 2226.27L1596.85 2226.27C1592.9 2223.99 1591.55 2218.95 1593.83 2215Z" fill="#FFFFFF" fill-rule="evenodd" fill-opacity="0.501961"/><path d="M1406.42 1667.6C1410.37 1665.32 1415.41 1666.67 1417.69 1670.62L1417.69 1670.62C1419.97 1674.57 1418.62 1679.61 1414.67 1681.89L1192.89 1809.94C1188.94 1812.21 1183.9 1810.86 1181.62 1806.92L1181.62 1806.92C1179.34 1802.97 1180.69 1797.92 1184.64 1795.65Z" fill="#FFFFFF" fill-rule="evenodd" fill-opacity="0.501961"/><path d="M3145.48 662.988C3149.43 660.71 3154.48 662.062 3156.75 666.008L3156.75 666.008C3159.03 669.953 3157.68 674.999 3153.73 677.277L2931.95 805.323C2928.01 807.601 2922.96 806.249 2920.68 802.303L2920.68 802.303C2918.41 798.357 2919.76 793.311 2923.7 791.033Z" fill="#FFFFFF" fill-rule="evenodd" fill-opacity="0.501961"/><path d="M3302.5 1229C3307.19 1229 3311 1232.81 3311 1237.5L3311 1237.5C3311 1242.19 3307.19 1246 3302.5 1246L3046.5 1246C3041.81 1246 3038 1242.19 3038 1237.5L3038 1237.5C3038 1232.81 3041.81 1229 3046.5 1229Z" stroke="#F2F2F2" stroke-width="10.3125" stroke-linecap="butt" stroke-linejoin="miter" stroke-miterlimit="8" stroke-opacity="1" fill="#FFFFFF" fill-rule="evenodd" fill-opacity="1"/><path d="M1292.5 1229C1297.19 1229 1301 1232.81 1301 1237.5L1301 1237.5C1301 1242.19 1297.19 1246 1292.5 1246L1036.5 1246C1031.81 1246 1028 1242.19 1028 1237.5L1028 1237.5C1028 1232.81 1031.81 1229 1036.5 1229Z" stroke="#F2F2F2" stroke-width="10.3125" stroke-linecap="butt" stroke-linejoin="miter" stroke-miterlimit="8" stroke-opacity="1" fill="#FFFFFF" fill-rule="evenodd" fill-opacity="1"/><path d="M3154.06 1801.68C3158.01 1803.95 3159.36 1809 3157.08 1812.94L3157.08 1812.94C3154.8 1816.89 3149.76 1818.24 3145.81 1815.96L2924.03 1687.92C2920.09 1685.64 2918.73 1680.59 2921.01 1676.65L2921.01 1676.65C2923.29 1672.7 2928.34 1671.35 2932.28 1673.63Z" fill="#FFFFFF" fill-rule="evenodd" fill-opacity="0.501961"/><path d="M2742.94 2216.1C2745.22 2220.05 2743.87 2225.09 2739.92 2227.37L2739.92 2227.37C2735.98 2229.65 2730.93 2228.3 2728.65 2224.35L2600.61 2002.57C2598.33 1998.63 2599.68 1993.58 2603.63 1991.3L2603.63 1991.3C2607.57 1989.02 2612.62 1990.38 2614.9 1994.32Z" fill="#FFFFFF" fill-rule="evenodd" fill-opacity="0.501961"/><path d="M1411.72 796.073C1415.66 798.351 1417.02 803.397 1414.74 807.343L1414.74 807.343C1412.46 811.289 1407.41 812.641 1403.47 810.362L1181.69 682.317C1177.74 680.038 1176.39 674.993 1178.67 671.047L1178.67 671.047C1180.95 667.102 1185.99 665.75 1189.94 668.028Z" fill="#FFFFFF" fill-rule="evenodd" fill-opacity="0.501961"/><path d="M1734.57 474.046C1736.85 477.991 1735.5 483.037 1731.55 485.315L1731.55 485.315C1727.61 487.593 1722.56 486.241 1720.29 482.296L1592.24 260.514C1589.96 256.568 1591.31 251.522 1595.26 249.244L1595.26 249.245C1599.21 246.967 1604.25 248.318 1606.53 252.264Z" fill="#FFFFFF" fill-rule="evenodd" fill-opacity="0.501961"/><path d="M2162 2117.5C2162 2112.81 2165.81 2109 2170.5 2109L2170.5 2109C2175.19 2109 2179 2112.81 2179 2117.5L2179 2373.5C2179 2378.19 2175.19 2382 2170.5 2382L2170.5 2382C2165.81 2382 2162 2378.19 2162 2373.5Z" stroke="#F2F2F2" stroke-width="10.3125" stroke-linecap="butt" stroke-linejoin="miter" stroke-miterlimit="8" stroke-opacity="1" fill="#FFFFFF" fill-rule="evenodd" fill-opacity="1"/></g></g></svg>