<?xml version="1.0" encoding="UTF-8" standalone="no"?>
<!DOCTYPE svg PUBLIC "-//W3C//DTD SVG 1.1//EN" "http://www.w3.org/Graphics/SVG/1.1/DTD/svg11.dtd">
<svg width="100%" height="100%" viewBox="0 0 2104 2104" version="1.1" xmlns="http://www.w3.org/2000/svg" xmlns:xlink="http://www.w3.org/1999/xlink" xml:space="preserve" xmlns:serif="http://www.serif.com/" style="fill-rule:evenodd;clip-rule:evenodd;stroke-linejoin:round;stroke-miterlimit:2;">
    <g transform="matrix(0.93356,0,0,0.916025,-969.3,-68.7675)">
        <g transform="matrix(1,0,0,1,2050.1,301)">
            <text x="0px" y="0px" style="font-family:'LucidaGrande-Bold', 'Lucida Grande', sans-serif;font-weight:600;font-size:202px;fill:white;">12</text>
        </g>
        <g transform="matrix(1,0,0,1,3101.93,1294)">
            <text x="0px" y="0px" style="font-family:'LucidaGrande-Bold', 'Lucida Grande', sans-serif;font-weight:600;font-size:202px;fill:white;">3</text>
        </g>
        <g transform="matrix(1,0,0,1,2101.13,2292)">
            <text x="0px" y="0px" style="font-family:'LucidaGrande-Bold', 'Lucida Grande', sans-serif;font-weight:600;font-size:202px;fill:white;">6</text>
        </g>
        <g transform="matrix(1,0,0,1,1100.33,1294)">
            <text x="0px" y="0px" style="font-family:'LucidaGrande-Bold', 'Lucida Grande', sans-serif;font-weight:600;font-size:202px;fill:white;">9</text>
        </g>
        <g transform="matrix(1,0,0,1,3006.12,769)">
            <text x="0px" y="0px" style="font-family:'LucidaGrande-Bold', 'Lucida Grande', sans-serif;font-weight:600;font-size:110px;fill:white;">2</text>
        </g>
        <g transform="matrix(1,0,0,1,2638.78,398)">
            <text x="0px" y="0px" style="font-family:'LucidaGrande-Bold', 'Lucida Grande', sans-serif;font-weight:600;font-size:110px;fill:white;">1</text>
        </g>
        <g transform="matrix(1,0,0,1,3008.25,1784)">
            <text x="0px" y="0px" style="font-family:'LucidaGrande-Bold', 'Lucida Grande', sans-serif;font-weight:600;font-size:110px;fill:white;">4</text>
        </g>
        <g transform="matrix(1,0,0,1,2630.14,2143)">
            <text x="0px" y="0px" style="font-family:'LucidaGrande-Bold', 'Lucida Grande', sans-serif;font-weight:600;font-size:110px;fill:white;">5</text>
        </g>
        <g transform="matrix(1,0,0,1,1628.79,2147)">
            <text x="0px" y="0px" style="font-family:'LucidaGrande-Bold', 'Lucida Grande', sans-serif;font-weight:600;font-size:110px;fill:white;">7</text>
        </g>
        <g transform="matrix(1,0,0,1,1263.6,1787)">
            <text x="0px" y="0px" style="font-family:'LucidaGrande-Bold', 'Lucida Grande', sans-serif;font-weight:600;font-size:110px;fill:white;">8</text>
        </g>
        <g transform="matrix(1,0,0,1,1236.04,770)">
            <text x="0px" y="0px" style="font-family:'LucidaGrande-Bold', 'Lucida Grande', sans-serif;font-weight:600;font-size:110px;fill:white;">10</text>
        </g>
        <g transform="matrix(1,0,0,1,1609.94,406)">
            <text x="0px" y="0px" style="font-family:'LucidaGrande-Bold', 'Lucida Grande', sans-serif;font-weight:600;font-size:110px;fill:white;">11</text>
        </g>
    </g>
</svg>
